# Blender v2.90.0 OBJ File: 'soilsensor.blend'
# www.blender.org
mtllib soilsensor.mtl
o Cube.001_Cube.002
v -0.032625 -2.229002 -0.112252
v -0.032625 -0.062775 -0.112252
v -0.032625 -2.229002 -0.277761
v -0.032625 -0.062775 -0.277761
v 0.032625 -2.229002 -0.112252
v 0.032625 -0.062775 -0.112252
v 0.032625 -2.229002 -0.277761
v 0.032625 -0.062775 -0.277761
v 0.000000 0.573774 -0.321912
v 0.000000 0.529369 -0.397051
v 0.000000 0.476840 -0.449709
v 0.000000 0.419240 -0.476826
v 0.000000 -0.173422 -0.122712
v 0.034616 0.628510 -0.101229
v 0.067220 0.607474 -0.186942
v 0.095917 0.573774 -0.262386
v 0.119040 0.529369 -0.323174
v 0.135245 0.476840 -0.365776
v 0.143590 0.419240 -0.387714
v 0.143590 -0.145916 -0.387714
v 0.135245 -0.203516 -0.365776
v 0.119040 -0.256045 -0.323174
v 0.095917 -0.118685 -0.262386
v 0.067220 -0.152385 -0.186942
v 0.034616 -0.173422 -0.101229
v 0.056009 0.628510 -0.044987
v 0.108764 0.607474 -0.077726
v 0.155197 0.573774 -0.106543
v 0.192611 0.529369 -0.129762
v 0.218831 0.476840 -0.146035
v 0.232333 0.419240 -0.154414
v 0.232333 -0.145916 -0.154414
v 0.218831 -0.203516 -0.146035
v 0.192611 -0.256045 -0.129762
v 0.155197 -0.118685 -0.106543
v 0.108764 -0.152385 -0.077726
v 0.056009 -0.173422 -0.044987
v 0.056009 0.628510 0.024533
v 0.108764 0.607474 0.057272
v 0.155197 0.573774 0.086089
v 0.192611 0.529369 0.109308
v 0.218831 0.476840 0.125580
v 0.232333 0.419240 0.133960
v 0.232333 -0.145916 0.133960
v 0.218831 -0.203516 0.125580
v 0.192611 -0.256045 0.109308
v 0.155197 -0.118685 0.086089
v 0.108764 -0.152385 0.057272
v 0.056009 -0.173422 0.024533
v 0.034616 0.628510 0.080775
v 0.067220 0.607474 0.166488
v 0.095917 0.573774 0.241932
v 0.119040 0.529369 0.302720
v 0.135245 0.476840 0.345322
v 0.143590 0.419240 0.367260
v 0.143590 -0.145916 0.367260
v 0.135245 -0.203516 0.345322
v 0.119040 -0.256045 0.302720
v 0.095917 -0.118685 0.241932
v 0.067220 -0.152385 0.166488
v 0.034616 -0.173422 0.080775
v 0.000000 0.628510 0.102258
v 0.000000 0.607474 0.208205
v 0.000000 0.573774 0.301458
v 0.000000 0.529369 0.376597
v 0.000000 0.476840 0.429255
v 0.000000 0.419240 0.456372
v 0.000000 -0.145916 0.456372
v 0.000000 -0.203516 0.429255
v 0.000000 -0.256045 0.376597
v 0.000000 -0.118685 0.301458
v 0.000000 -0.152385 0.208205
v -0.000000 -0.173422 0.102258
v -0.000000 0.635661 -0.010227
v -0.034616 0.628510 0.080775
v -0.067220 0.607474 0.166488
v -0.095917 0.573774 0.241932
v -0.119040 0.529369 0.302720
v -0.135245 0.476840 0.345322
v -0.143590 0.419240 0.367260
v -0.143590 -0.145916 0.367260
v -0.135245 -0.203516 0.345322
v -0.119040 -0.256045 0.302720
v -0.095917 -0.118685 0.241932
v -0.067220 -0.152385 0.166488
v -0.034616 -0.173422 0.080775
v 0.000000 -0.180573 -0.010227
v -0.056009 0.628510 0.024533
v -0.108764 0.607474 0.057272
v -0.155197 0.573774 0.086089
v -0.192611 0.529369 0.109308
v -0.218831 0.476840 0.125581
v -0.232333 0.419240 0.133960
v -0.232333 -0.145916 0.133960
v -0.218831 -0.203516 0.125581
v -0.192611 -0.256045 0.109308
v -0.155197 -0.118685 0.086089
v -0.108764 -0.152385 0.057272
v -0.056009 -0.173422 0.024533
v -0.056009 0.628510 -0.044987
v -0.108764 0.607474 -0.077726
v -0.155197 0.573774 -0.106543
v -0.192611 0.529369 -0.129762
v -0.218831 0.476840 -0.146034
v -0.232333 0.419240 -0.154414
v -0.232333 -0.145916 -0.154414
v -0.218831 -0.203516 -0.146034
v -0.192611 -0.256045 -0.129762
v -0.155197 -0.118685 -0.106543
v -0.108764 -0.152385 -0.077726
v -0.056009 -0.173422 -0.044987
v -0.034616 0.628510 -0.101229
v -0.067220 0.607474 -0.186942
v -0.095917 0.573774 -0.262386
v -0.119040 0.529369 -0.323174
v -0.135245 0.476840 -0.365776
v -0.143590 0.419240 -0.387714
v -0.143590 -0.145916 -0.387714
v -0.135245 -0.203516 -0.365776
v -0.119040 -0.256045 -0.323174
v -0.095917 -0.118685 -0.262386
v -0.067220 -0.152385 -0.186942
v -0.034616 -0.173422 -0.101229
v -0.000000 0.628510 -0.122712
v -0.000000 0.607474 -0.228659
v -0.000000 -0.145916 -0.476826
v -0.000000 -0.203516 -0.449709
v 0.000000 -0.256045 -0.397051
v -0.000000 -0.118685 -0.321912
v -0.000000 -0.152385 -0.228659
v -0.032625 -2.229002 0.275477
v -0.032625 -0.062775 0.275477
v -0.032625 -2.229002 0.109968
v -0.032625 -0.062775 0.109968
v 0.032625 -2.229002 0.275477
v 0.032625 -0.062775 0.275477
v 0.032625 -2.229002 0.109968
v 0.032625 -0.062775 0.109968
v 0.000000 0.032472 0.323150
v 0.000000 1.346658 0.323150
v 0.006308 0.032472 0.323771
v 0.006308 1.346658 0.323771
v 0.012373 0.032472 0.325611
v 0.012373 1.346658 0.325611
v 0.017963 0.032472 0.328599
v 0.017963 1.346658 0.328599
v 0.022862 0.032472 0.332620
v 0.022862 1.346658 0.332620
v 0.026883 0.032472 0.337519
v 0.026883 1.346658 0.337519
v 0.029871 0.032472 0.343109
v 0.029871 1.346658 0.343109
v 0.031711 0.032472 0.349174
v 0.031711 1.346658 0.349174
v 0.032332 0.032472 0.355482
v 0.032332 1.346658 0.355482
v 0.031711 0.032472 0.361790
v 0.031711 1.346658 0.361790
v 0.029871 0.032472 0.367855
v 0.029871 1.346658 0.367855
v 0.026883 0.032472 0.373445
v 0.026883 1.346658 0.373445
v 0.022862 0.032472 0.378344
v 0.022862 1.346658 0.378344
v 0.017963 0.032472 0.382365
v 0.017963 1.346658 0.382365
v 0.012373 0.032472 0.385353
v 0.012373 1.346658 0.385353
v 0.006308 0.032472 0.387193
v 0.006308 1.346658 0.387193
v -0.000000 0.032472 0.387814
v -0.000000 1.346658 0.387814
v -0.006308 0.032472 0.387193
v -0.006308 1.346658 0.387193
v -0.012373 0.032472 0.385353
v -0.012373 1.346658 0.385353
v -0.017963 0.032472 0.382365
v -0.017963 1.346658 0.382365
v -0.022862 0.032472 0.378344
v -0.022862 1.346658 0.378344
v -0.026883 0.032472 0.373445
v -0.026883 1.346658 0.373445
v -0.029871 0.032472 0.367855
v -0.029871 1.346658 0.367855
v -0.031711 0.032472 0.361790
v -0.031711 1.346658 0.361790
v -0.032332 0.032472 0.355482
v -0.032332 1.346658 0.355482
v -0.031711 0.032472 0.349174
v -0.031711 1.346658 0.349174
v -0.029871 0.032472 0.343109
v -0.029871 1.346658 0.343109
v -0.026883 0.032472 0.337519
v -0.026883 1.346658 0.337519
v -0.022862 0.032472 0.332620
v -0.022862 1.346658 0.332620
v -0.017963 0.032472 0.328599
v -0.017963 1.346658 0.328599
v -0.012373 0.032472 0.325611
v -0.012373 1.346658 0.325611
v -0.006308 0.032472 0.323771
v -0.006308 1.346658 0.323771
vt 0.447293 0.366683
vt 0.447293 0.366683
vt 0.447293 0.366683
vt 0.447293 0.366683
vt 0.447293 0.366683
vt 0.447293 0.366683
vt 0.447293 0.366683
vt 0.447293 0.366683
vt 0.791437 0.038042
vt 0.791437 0.038042
vt 0.791437 0.038042
vt 0.791437 0.038042
vt 0.791437 0.038042
vt 0.791437 0.038042
vt 0.791437 0.038042
vt 0.791437 0.038042
vt 0.791437 0.038042
vt 0.791437 0.038042
vt 0.791437 0.038042
vt 0.791437 0.038042
vt 0.791437 0.038042
vt 0.791437 0.038042
vt 0.791437 0.038042
vt 0.791437 0.038042
vt 0.791437 0.038042
vt 0.791437 0.038042
vt 0.791437 0.038042
vt 0.791437 0.038042
vt 0.791437 0.038042
vt 0.791437 0.038042
vt 0.791437 0.038042
vt 0.791437 0.038042
vt 0.791437 0.038042
vt 0.791437 0.038042
vt 0.791437 0.038042
vt 0.791437 0.038042
vt 0.791437 0.038042
vt 0.791437 0.038042
vt 0.791437 0.038042
vt 0.791437 0.038042
vt 0.791437 0.038042
vt 0.791437 0.038042
vt 0.791437 0.038042
vt 0.791437 0.038042
vt 0.791437 0.038042
vt 0.791437 0.038042
vt 0.791437 0.038042
vt 0.791437 0.038042
vt 0.791437 0.038042
vt 0.791437 0.038042
vt 0.791437 0.038042
vt 0.791437 0.038042
vt 0.791437 0.038042
vt 0.791437 0.038042
vt 0.791437 0.038042
vt 0.791437 0.038042
vt 0.791437 0.038042
vt 0.791437 0.038042
vt 0.791437 0.038042
vt 0.791437 0.038042
vt 0.791437 0.038042
vt 0.791437 0.038042
vt 0.791437 0.038042
vt 0.791437 0.038042
vt 0.791437 0.038042
vt 0.791437 0.038042
vt 0.791437 0.038042
vt 0.791437 0.038042
vt 0.791437 0.038042
vt 0.791437 0.038042
vt 0.791437 0.038042
vt 0.791437 0.038042
vt 0.791437 0.038042
vt 0.791437 0.038042
vt 0.791437 0.038042
vt 0.791437 0.038042
vt 0.791437 0.038042
vt 0.791437 0.038042
vt 0.791437 0.038042
vt 0.791437 0.038042
vt 0.791437 0.038042
vt 0.791437 0.038042
vt 0.791437 0.038042
vt 0.791437 0.038042
vt 0.791437 0.038042
vt 0.791437 0.038042
vt 0.791437 0.038042
vt 0.791437 0.038042
vt 0.791437 0.038042
vt 0.791437 0.038042
vt 0.791437 0.038042
vt 0.791437 0.038042
vt 0.791437 0.038042
vt 0.791437 0.038042
vt 0.791437 0.038042
vt 0.791437 0.038042
vt 0.791437 0.038042
vt 0.791437 0.038042
vt 0.791437 0.038042
vt 0.791437 0.038042
vt 0.791437 0.038042
vt 0.791437 0.038042
vt 0.791437 0.038042
vt 0.791437 0.038042
vt 0.791437 0.038042
vt 0.791437 0.038042
vt 0.791437 0.038042
vt 0.791437 0.038042
vt 0.791437 0.038042
vt 0.791437 0.038042
vt 0.791437 0.038042
vt 0.791437 0.038042
vt 0.791437 0.038042
vt 0.791437 0.038042
vt 0.791437 0.038042
vt 0.791437 0.038042
vt 0.791437 0.038042
vt 0.791437 0.038042
vt 0.791437 0.038042
vt 0.791437 0.038042
vt 0.791437 0.038042
vt 0.791437 0.038042
vt 0.791437 0.038042
vt 0.791437 0.038042
vt 0.791437 0.038042
vt 0.791437 0.038042
vt 0.791437 0.038042
vt 0.791437 0.038042
vt 0.791437 0.038042
vt 0.791437 0.038042
vt 0.447293 0.365133
vt 0.447293 0.365133
vt 0.447293 0.365133
vt 0.447293 0.365133
vt 0.447293 0.365133
vt 0.447293 0.365133
vt 0.447293 0.365133
vt 0.447293 0.365133
vt 0.444193 0.368583
vt 0.444193 0.368583
vt 0.444193 0.368583
vt 0.444193 0.368583
vt 0.444193 0.368583
vt 0.444193 0.368583
vt 0.444193 0.368583
vt 0.444193 0.368583
vt 0.444193 0.368583
vt 0.444193 0.368583
vt 0.444193 0.368583
vt 0.444193 0.368583
vt 0.444193 0.368583
vt 0.444193 0.368583
vt 0.444193 0.368583
vt 0.444193 0.368583
vt 0.444193 0.368583
vt 0.444193 0.368583
vt 0.444193 0.368583
vt 0.444193 0.368583
vt 0.444193 0.368583
vt 0.444193 0.368583
vt 0.444193 0.368583
vt 0.444193 0.368583
vt 0.444193 0.368583
vt 0.444193 0.368583
vt 0.444193 0.368583
vt 0.444193 0.368583
vt 0.444193 0.368583
vt 0.444193 0.368583
vt 0.444193 0.368583
vt 0.444193 0.368583
vt 0.444193 0.368583
vt 0.444193 0.368583
vt 0.444193 0.368583
vt 0.444193 0.368583
vt 0.444193 0.368583
vt 0.444193 0.368583
vt 0.444193 0.368583
vt 0.444193 0.368583
vt 0.444193 0.368583
vt 0.444193 0.368583
vt 0.444193 0.368583
vt 0.444193 0.368583
vt 0.444193 0.368583
vt 0.444193 0.368583
vt 0.444193 0.368583
vt 0.444193 0.368583
vt 0.444193 0.368583
vt 0.444193 0.368583
vt 0.444193 0.368583
vt 0.444193 0.368583
vt 0.444193 0.368583
vt 0.444193 0.368583
vt 0.444193 0.368583
vt 0.444193 0.368583
vt 0.444193 0.368583
vt 0.444193 0.368583
vt 0.444193 0.368583
vt 0.444193 0.368583
vt 0.444193 0.368583
vt 0.444193 0.368583
vt 0.444193 0.368583
vt 0.444193 0.368583
vn -1.0000 0.0000 0.0000
vn 0.0000 0.0000 -1.0000
vn 1.0000 0.0000 0.0000
vn 0.0000 0.0000 1.0000
vn 0.0000 -1.0000 0.0000
vn 0.0000 1.0000 0.0000
vn 0.1200 0.9738 -0.1933
vn -0.4782 -0.4215 0.7705
vn 0.2064 0.9202 -0.3326
vn 0.2064 -0.9202 -0.3326
vn 0.3011 0.8210 -0.4852
vn 0.1200 -0.9738 -0.1933
vn 0.4014 0.6484 -0.6468
vn 0.0393 -0.9972 -0.0634
vn 0.4896 0.3714 -0.7889
vn 0.5273 -0.0000 -0.8497
vn 0.4896 -0.3714 -0.7889
vn 0.0393 0.9972 -0.0634
vn 0.4014 -0.6484 -0.6468
vn 0.4972 -0.8468 -0.1891
vn 0.6697 0.6975 -0.2548
vn 0.3050 -0.9453 -0.1160
vn 0.8097 0.4996 -0.3080
vn 0.1027 -0.9939 -0.0391
vn 0.9022 0.2614 -0.3432
vn 0.9347 0.0000 -0.3555
vn 0.9022 -0.2614 -0.3432
vn 0.1027 0.9939 -0.0391
vn 0.8097 -0.4996 -0.3080
vn 0.3050 0.9453 -0.1160
vn -0.8916 -0.3002 0.3391
vn 0.4972 0.8468 -0.1891
vn 0.9736 -0.2282 -0.0000
vn 0.1266 0.9919 0.0000
vn 0.8947 -0.4466 -0.0000
vn 0.3704 0.9289 0.0000
vn -0.9648 -0.2628 0.0000
vn 0.5874 0.8093 0.0000
vn 0.5874 -0.8093 -0.0000
vn 0.7647 0.6443 0.0000
vn 0.3704 -0.9289 0.0000
vn 0.8947 0.4466 0.0000
vn 0.1266 -0.9919 0.0000
vn 0.9736 0.2282 -0.0000
vn 0.8097 -0.4996 0.3080
vn 0.3050 0.9453 0.1160
vn -0.8916 -0.3002 -0.3391
vn 0.4972 0.8468 0.1891
vn 0.4972 -0.8468 0.1891
vn 0.6697 0.6975 0.2548
vn 0.3050 -0.9453 0.1160
vn 0.8097 0.4996 0.3080
vn 0.1027 -0.9939 0.0391
vn 0.9022 0.2614 0.3432
vn 0.9347 0.0000 0.3555
vn 0.9022 -0.2614 0.3432
vn 0.1027 0.9939 0.0391
vn 0.3011 0.8210 0.4852
vn 0.1200 -0.9738 0.1933
vn 0.4014 0.6484 0.6468
vn 0.0393 -0.9972 0.0634
vn 0.4896 0.3714 0.7889
vn 0.5273 0.0000 0.8497
vn 0.4896 -0.3714 0.7889
vn 0.0393 0.9972 0.0634
vn 0.4014 -0.6484 0.6468
vn 0.1200 0.9738 0.1933
vn -0.4782 -0.4215 -0.7705
vn 0.2064 0.9202 0.3326
vn 0.2064 -0.9202 0.3326
vn -0.5273 0.0000 0.8497
vn -0.4896 -0.3714 0.7889
vn -0.0393 0.9972 0.0634
vn -0.4014 -0.6484 0.6468
vn -0.1200 0.9738 0.1933
vn 0.4782 -0.4215 -0.7705
vn -0.2064 0.9202 0.3326
vn -0.2064 -0.9202 0.3326
vn -0.3011 0.8210 0.4852
vn -0.1200 -0.9738 0.1933
vn -0.4014 0.6484 0.6468
vn -0.0393 -0.9972 0.0634
vn -0.4896 0.3714 0.7889
vn -0.3050 0.9453 0.1160
vn 0.8916 -0.3002 -0.3391
vn -0.4972 0.8468 0.1891
vn -0.4972 -0.8468 0.1891
vn -0.6697 0.6975 0.2548
vn -0.3050 -0.9453 0.1160
vn -0.8097 0.4996 0.3080
vn -0.1027 -0.9939 0.0391
vn -0.9022 0.2614 0.3432
vn -0.9347 0.0000 0.3555
vn -0.9022 -0.2614 0.3432
vn -0.1027 0.9939 0.0390
vn -0.8097 -0.4996 0.3080
vn -0.3704 -0.9289 0.0000
vn -0.8947 0.4466 0.0000
vn -0.1266 -0.9919 0.0000
vn -0.9736 0.2282 0.0000
vn -0.9736 -0.2282 0.0000
vn -0.1266 0.9919 0.0000
vn -0.8947 -0.4466 0.0000
vn -0.3704 0.9289 0.0000
vn 0.9648 -0.2628 -0.0000
vn -0.5874 0.8093 0.0000
vn -0.5874 -0.8093 0.0000
vn -0.7647 0.6443 0.0000
vn -0.9347 0.0000 -0.3555
vn -0.9022 -0.2614 -0.3432
vn -0.1027 0.9939 -0.0390
vn -0.8097 -0.4996 -0.3080
vn -0.3050 0.9453 -0.1160
vn 0.8916 -0.3002 0.3391
vn -0.4972 0.8468 -0.1891
vn -0.4972 -0.8468 -0.1891
vn -0.6697 0.6975 -0.2548
vn -0.3050 -0.9453 -0.1160
vn -0.8097 0.4996 -0.3080
vn -0.1027 -0.9939 -0.0391
vn -0.9022 0.2614 -0.3432
vn 0.4782 -0.4215 0.7705
vn -0.2064 0.9202 -0.3326
vn -0.2064 -0.9202 -0.3326
vn -0.3011 0.8210 -0.4852
vn -0.1200 -0.9738 -0.1933
vn -0.4014 0.6484 -0.6468
vn -0.0393 -0.9972 -0.0634
vn -0.4896 0.3714 -0.7889
vn -0.5273 0.0000 -0.8497
vn -0.4896 -0.3714 -0.7889
vn -0.0393 0.9972 -0.0634
vn -0.4014 -0.6484 -0.6468
vn -0.1200 0.9738 -0.1933
vn 0.0980 0.0000 -0.9952
vn 0.2903 0.0000 -0.9569
vn 0.4714 0.0000 -0.8819
vn 0.6344 0.0000 -0.7730
vn 0.7730 0.0000 -0.6344
vn 0.8819 0.0000 -0.4714
vn 0.9569 0.0000 -0.2903
vn 0.9952 0.0000 -0.0980
vn 0.9952 0.0000 0.0980
vn 0.9569 0.0000 0.2903
vn 0.8819 0.0000 0.4714
vn 0.7730 0.0000 0.6344
vn 0.6344 0.0000 0.7730
vn 0.4714 0.0000 0.8819
vn 0.2903 0.0000 0.9569
vn 0.0980 0.0000 0.9952
vn -0.0980 0.0000 0.9952
vn -0.2903 0.0000 0.9569
vn -0.4714 0.0000 0.8819
vn -0.6344 0.0000 0.7730
vn -0.7730 0.0000 0.6344
vn -0.8819 0.0000 0.4714
vn -0.9569 0.0000 0.2903
vn -0.9952 0.0000 0.0980
vn -0.9952 0.0000 -0.0980
vn -0.9569 0.0000 -0.2903
vn -0.8819 0.0000 -0.4714
vn -0.7730 0.0000 -0.6344
vn -0.6344 0.0000 -0.7730
vn -0.4714 0.0000 -0.8819
vn -0.2903 0.0000 -0.9569
vn -0.0980 0.0000 -0.9952
usemtl Material.001
s off
f 1/1/1 2/2/1 4/3/1 3/4/1
f 3/4/2 4/3/2 8/5/2 7/6/2
f 7/6/3 8/5/3 6/7/3 5/8/3
f 5/8/4 6/7/4 2/2/4 1/1/4
f 3/4/5 7/6/5 5/8/5 1/1/5
f 8/5/6 4/3/6 2/2/6 6/7/6
f 125/9/7 124/10/7 14/11/7 15/12/7
f 129/13/8 128/14/8 22/15/8 23/16/8
f 9/17/9 125/9/9 15/12/9 16/18/9
f 130/19/10 129/13/10 23/16/10 24/20/10
f 10/21/11 9/17/11 16/18/11 17/22/11
f 13/23/12 130/19/12 24/20/12 25/24/12
f 11/25/13 10/21/13 17/22/13 18/26/13
f 87/27/14 13/23/14 25/24/14
f 12/28/15 11/25/15 18/26/15 19/29/15
f 126/30/16 12/28/16 19/29/16 20/31/16
f 127/32/17 126/30/17 20/31/17 21/33/17
f 124/10/18 74/34/18 14/11/18
f 128/14/19 127/32/19 21/33/19 22/15/19
f 24/20/20 23/16/20 35/35/20 36/36/20
f 17/22/21 16/18/21 28/37/21 29/38/21
f 25/24/22 24/20/22 36/36/22 37/39/22
f 18/26/23 17/22/23 29/38/23 30/40/23
f 87/27/24 25/24/24 37/39/24
f 19/29/25 18/26/25 30/40/25 31/41/25
f 20/31/26 19/29/26 31/41/26 32/42/26
f 21/33/27 20/31/27 32/42/27 33/43/27
f 14/11/28 74/34/28 26/44/28
f 22/15/29 21/33/29 33/43/29 34/45/29
f 15/12/30 14/11/30 26/44/30 27/46/30
f 23/16/31 22/15/31 34/45/31 35/35/31
f 16/18/32 15/12/32 27/46/32 28/37/32
f 32/42/3 31/41/3 43/47/3 44/48/3
f 33/43/33 32/42/33 44/48/33 45/49/33
f 26/44/34 74/34/34 38/50/34
f 34/45/35 33/43/35 45/49/35 46/51/35
f 27/46/36 26/44/36 38/50/36 39/52/36
f 35/35/37 34/45/37 46/51/37 47/53/37
f 28/37/38 27/46/38 39/52/38 40/54/38
f 36/36/39 35/35/39 47/53/39 48/55/39
f 29/38/40 28/37/40 40/54/40 41/56/40
f 37/39/41 36/36/41 48/55/41 49/57/41
f 30/40/42 29/38/42 41/56/42 42/58/42
f 87/27/43 37/39/43 49/57/43
f 31/41/44 30/40/44 42/58/44 43/47/44
f 46/51/45 45/49/45 57/59/45 58/60/45
f 39/52/46 38/50/46 50/61/46 51/62/46
f 47/53/47 46/51/47 58/60/47 59/63/47
f 40/54/48 39/52/48 51/62/48 52/64/48
f 48/55/49 47/53/49 59/63/49 60/65/49
f 41/56/50 40/54/50 52/64/50 53/66/50
f 49/57/51 48/55/51 60/65/51 61/67/51
f 42/58/52 41/56/52 53/66/52 54/68/52
f 87/27/53 49/57/53 61/67/53
f 43/47/54 42/58/54 54/68/54 55/69/54
f 44/48/55 43/47/55 55/69/55 56/70/55
f 45/49/56 44/48/56 56/70/56 57/59/56
f 38/50/57 74/34/57 50/61/57
f 53/66/58 52/64/58 64/71/58 65/72/58
f 61/67/59 60/65/59 72/73/59 73/74/59
f 54/68/60 53/66/60 65/72/60 66/75/60
f 87/27/61 61/67/61 73/74/61
f 55/69/62 54/68/62 66/75/62 67/76/62
f 56/70/63 55/69/63 67/76/63 68/77/63
f 57/59/64 56/70/64 68/77/64 69/78/64
f 50/61/65 74/34/65 62/79/65
f 58/60/66 57/59/66 69/78/66 70/80/66
f 51/62/67 50/61/67 62/79/67 63/81/67
f 59/63/68 58/60/68 70/80/68 71/82/68
f 52/64/69 51/62/69 63/81/69 64/71/69
f 60/65/70 59/63/70 71/82/70 72/73/70
f 68/77/71 67/76/71 80/83/71 81/84/71
f 69/78/72 68/77/72 81/84/72 82/85/72
f 62/79/73 74/34/73 75/86/73
f 70/80/74 69/78/74 82/85/74 83/87/74
f 63/81/75 62/79/75 75/86/75 76/88/75
f 71/82/76 70/80/76 83/87/76 84/89/76
f 64/71/77 63/81/77 76/88/77 77/90/77
f 72/73/78 71/82/78 84/89/78 85/91/78
f 65/72/79 64/71/79 77/90/79 78/92/79
f 73/74/80 72/73/80 85/91/80 86/93/80
f 66/75/81 65/72/81 78/92/81 79/94/81
f 87/27/82 73/74/82 86/93/82
f 67/76/83 66/75/83 79/94/83 80/83/83
f 76/88/84 75/86/84 88/95/84 89/96/84
f 84/89/85 83/87/85 96/97/85 97/98/85
f 77/90/86 76/88/86 89/96/86 90/99/86
f 85/91/87 84/89/87 97/98/87 98/100/87
f 78/92/88 77/90/88 90/99/88 91/101/88
f 86/93/89 85/91/89 98/100/89 99/102/89
f 79/94/90 78/92/90 91/101/90 92/103/90
f 87/27/91 86/93/91 99/102/91
f 80/83/92 79/94/92 92/103/92 93/104/92
f 81/84/93 80/83/93 93/104/93 94/105/93
f 82/85/94 81/84/94 94/105/94 95/106/94
f 75/86/95 74/34/95 88/95/95
f 83/87/96 82/85/96 95/106/96 96/97/96
f 99/102/97 98/100/97 110/107/97 111/108/97
f 92/103/98 91/101/98 103/109/98 104/110/98
f 87/27/99 99/102/99 111/108/99
f 93/104/100 92/103/100 104/110/100 105/111/100
f 94/105/1 93/104/1 105/111/1 106/112/1
f 95/106/101 94/105/101 106/112/101 107/113/101
f 88/95/102 74/34/102 100/114/102
f 96/97/103 95/106/103 107/113/103 108/115/103
f 89/96/104 88/95/104 100/114/104 101/116/104
f 97/98/105 96/97/105 108/115/105 109/117/105
f 90/99/106 89/96/106 101/116/106 102/118/106
f 98/100/107 97/98/107 109/117/107 110/107/107
f 91/101/108 90/99/108 102/118/108 103/109/108
f 106/112/109 105/111/109 117/119/109 118/120/109
f 107/113/110 106/112/110 118/120/110 119/121/110
f 100/114/111 74/34/111 112/122/111
f 108/115/112 107/113/112 119/121/112 120/123/112
f 101/116/113 100/114/113 112/122/113 113/124/113
f 109/117/114 108/115/114 120/123/114 121/125/114
f 102/118/115 101/116/115 113/124/115 114/126/115
f 110/107/116 109/117/116 121/125/116 122/127/116
f 103/109/117 102/118/117 114/126/117 115/128/117
f 111/108/118 110/107/118 122/127/118 123/129/118
f 104/110/119 103/109/119 115/128/119 116/130/119
f 87/27/120 111/108/120 123/129/120
f 105/111/121 104/110/121 116/130/121 117/119/121
f 121/125/122 120/123/122 128/14/122 129/13/122
f 114/126/123 113/124/123 125/9/123 9/17/123
f 122/127/124 121/125/124 129/13/124 130/19/124
f 115/128/125 114/126/125 9/17/125 10/21/125
f 123/129/126 122/127/126 130/19/126 13/23/126
f 116/130/127 115/128/127 10/21/127 11/25/127
f 87/27/128 123/129/128 13/23/128
f 117/119/129 116/130/129 11/25/129 12/28/129
f 118/120/130 117/119/130 12/28/130 126/30/130
f 119/121/131 118/120/131 126/30/131 127/32/131
f 112/122/132 74/34/132 124/10/132
f 120/123/133 119/121/133 127/32/133 128/14/133
f 113/124/134 112/122/134 124/10/134 125/9/134
f 131/131/1 132/132/1 134/133/1 133/134/1
f 133/134/2 134/133/2 138/135/2 137/136/2
f 137/136/3 138/135/3 136/137/3 135/138/3
f 135/138/4 136/137/4 132/132/4 131/131/4
f 133/134/5 137/136/5 135/138/5 131/131/5
f 138/135/6 134/133/6 132/132/6 136/137/6
f 139/139/135 140/140/135 142/141/135 141/142/135
f 141/142/136 142/141/136 144/143/136 143/144/136
f 143/144/137 144/143/137 146/145/137 145/146/137
f 145/146/138 146/145/138 148/147/138 147/148/138
f 147/148/139 148/147/139 150/149/139 149/150/139
f 149/150/140 150/149/140 152/151/140 151/152/140
f 151/152/141 152/151/141 154/153/141 153/154/141
f 153/154/142 154/153/142 156/155/142 155/156/142
f 155/156/143 156/155/143 158/157/143 157/158/143
f 157/158/144 158/157/144 160/159/144 159/160/144
f 159/160/145 160/159/145 162/161/145 161/162/145
f 161/162/146 162/161/146 164/163/146 163/164/146
f 163/164/147 164/163/147 166/165/147 165/166/147
f 165/166/148 166/165/148 168/167/148 167/168/148
f 167/168/149 168/167/149 170/169/149 169/170/149
f 169/170/150 170/169/150 172/171/150 171/172/150
f 171/172/151 172/171/151 174/173/151 173/174/151
f 173/174/152 174/173/152 176/175/152 175/176/152
f 175/176/153 176/175/153 178/177/153 177/178/153
f 177/178/154 178/177/154 180/179/154 179/180/154
f 179/180/155 180/179/155 182/181/155 181/182/155
f 181/182/156 182/181/156 184/183/156 183/184/156
f 183/184/157 184/183/157 186/185/157 185/186/157
f 185/186/158 186/185/158 188/187/158 187/188/158
f 187/188/159 188/187/159 190/189/159 189/190/159
f 189/190/160 190/189/160 192/191/160 191/192/160
f 191/192/161 192/191/161 194/193/161 193/194/161
f 193/194/162 194/193/162 196/195/162 195/196/162
f 195/196/163 196/195/163 198/197/163 197/198/163
f 197/198/164 198/197/164 200/199/164 199/200/164
f 142/141/6 140/140/6 202/201/6 200/199/6 198/197/6 196/195/6 194/193/6 192/191/6 190/189/6 188/187/6 186/185/6 184/183/6 182/181/6 180/179/6 178/177/6 176/175/6 174/173/6 172/171/6 170/169/6 168/167/6 166/165/6 164/163/6 162/161/6 160/159/6 158/157/6 156/155/6 154/153/6 152/151/6 150/149/6 148/147/6 146/145/6 144/143/6
f 199/200/165 200/199/165 202/201/165 201/202/165
f 201/202/166 202/201/166 140/140/166 139/139/166
f 139/139/5 141/142/5 143/144/5 145/146/5 147/148/5 149/150/5 151/152/5 153/154/5 155/156/5 157/158/5 159/160/5 161/162/5 163/164/5 165/166/5 167/168/5 169/170/5 171/172/5 173/174/5 175/176/5 177/178/5 179/180/5 181/182/5 183/184/5 185/186/5 187/188/5 189/190/5 191/192/5 193/194/5 195/196/5 197/198/5 199/200/5 201/202/5
