<?xml version="1.0" encoding="UTF-8" standalone="no"?>
<svg
   xmlns:dc="http://purl.org/dc/elements/1.1/"
   xmlns:cc="http://creativecommons.org/ns#"
   xmlns:rdf="http://www.w3.org/1999/02/22-rdf-syntax-ns#"
   xmlns:svg="http://www.w3.org/2000/svg"
   xmlns="http://www.w3.org/2000/svg"
   id="svg8"
   version="1.1"
   viewBox="0 0 7.3483567 24.565261"
   height="92.845085"
   width="27.773317">
  <defs
     id="defs2" />
  <metadata
     id="metadata5">
    <rdf:RDF>
      <cc:Work
         rdf:about="">
        <dc:format>image/svg+xml</dc:format>
        <dc:type
           rdf:resource="http://purl.org/dc/dcmitype/StillImage" />
        <dc:title></dc:title>
      </cc:Work>
    </rdf:RDF>
  </metadata>
  <g
     id="layer1">
    <path
       d="m 7.3483567,11.96029 c 0,0.789316 -6.1521124,4.34124 -6.83568046,3.946582 -0.68356805,-0.394658 -0.68356805,-7.4985058 0,-7.893164 C 1.1962443,7.6190498 7.3483567,11.170974 7.3483567,11.96029 Z"
       id="play"
       style="opacity:0.98999999;vector-effect:none;fill:#2ecc71;fill-opacity:1;fill-rule:nonzero;stroke:none;stroke-width:0.0329028;stroke-linecap:square;stroke-linejoin:round;stroke-miterlimit:4;stroke-dasharray:none;stroke-dashoffset:0;stroke-opacity:1;paint-order:stroke markers fill" />
    <path
       d="m 6.7045584,1.3496787 -1.269487,1.26949 c -0.184806,0.1848 -0.482305,0.1848 -0.667117,-1e-5 l -0.39197,-0.39197 c -0.1848045,-0.1848 -0.1848055,-0.4823 0,-0.66711 l 1.269395,-1.26939003 a 2.0875522,2.0875522 0 0 0 -2.3243415,0.43117 2.0875522,2.0875522 0 0 0 -0.453732,2.27183003 l -2.26504201,2.26504 c -0.184806,0.1848 -0.184806,0.48232 -1e-6,0.66712 l 0.46703601,0.46704 c 0.184804,0.1848 0.482402,0.18489 0.667208,9e-5 l 2.264955,-2.26496 a 2.0875522,2.0875522 0 0 0 2.2718195,-0.45391 2.0875522,2.0875522 0 0 0 0.431277,-2.32443 z"
       style="opacity:0.98999999;vector-effect:none;fill:#cccccc;fill-opacity:1;fill-rule:nonzero;stroke:none;stroke-width:0.019842;stroke-linecap:square;stroke-linejoin:round;stroke-miterlimit:4;stroke-dasharray:none;stroke-dashoffset:0;stroke-opacity:1;paint-order:stroke markers fill"
       id="wrench" />
    <path
       transform="scale(0.26458332)"
       d="M 25.212891 64.957031 L 15.644531 75.291016 L 11.179688 72.974609 L 2.5605469 93.263672 L 12.128906 82.929688 L 16.59375 85.244141 L 25.212891 64.957031 z "
       style="opacity:0.99;vector-effect:none;fill:#f1e60f;fill-opacity:1;fill-rule:nonzero;stroke:none;stroke-width:0.179372;stroke-linecap:square;stroke-linejoin:round;stroke-miterlimit:4;stroke-dasharray:none;stroke-dashoffset:0;stroke-opacity:1;paint-order:stroke markers fill"
       id="bolt" />
  </g>
</svg>
