<svg version="1.1" viewBox="0 0 153.48 42.9" xml:space="preserve" xmlns="http://www.w3.org/2000/svg"><style type="text/css">
	.st0{fill:#005A9C;}
	.st1{fill:#FFFFFF;}
</style><path class="st0" d="m143.78 0h-23.4c-5.4 0-9.7 4.4-9.7 9.7v7.7h-12c-1.9-9.9-10.6-17.4-21.1-17.4-10.4 0-19.2 7.5-21.1 17.4h-13.9l3.8-6.6c1.3-2.3 1.3-5 0-7.2-1.3-2.3-3.6-3.6-6.3-3.6h-32.8c-2.6 0-4.9 1.3-6.3 3.6-1.3 2.3-1.3 5 0 7.2l16.4 28.5c1.3 2.3 3.6 3.6 6.3 3.6 2.6 0 4.9-1.3 6.3-3.6l8-13.8h18.5c1.9 9.9 10.6 17.4 21.1 17.4 10.4 0 19.2-7.5 21.1-17.4h12v7.7c0 5.4 4.4 9.7 9.7 9.7h23.4c5.4 0 9.7-4.4 9.7-9.7v-23.4c0-5.4-4.4-9.8-9.7-9.8z" style="fill:#005a9c"/><polygon class="st1" transform="translate(-17.525,-34.9)" points="41.2 52 46.2 60.7 56.5 42.8 46.5 42.8 35.9 42.8 25.9 42.8 36.2 60.7" style="fill:#fff"/><path class="st0" d="m23.675 11.6c2.1 0 3.8 1.1 4.8 2.8l1.6-0.9c-1.3-2.2-3.7-3.7-6.4-3.7s-5.1 1.5-6.4 3.7l1.6 0.9c0.9-1.7 2.7-2.8 4.8-2.8z" style="fill:#005a9c"/><path class="st0" d="m23.675 15.3c0.7 0 1.3 0.4 1.6 0.9l1.6-0.9c-0.6-1.1-1.8-1.9-3.2-1.9s-2.5 0.8-3.2 1.9l1.6 0.9c0.3-0.5 0.9-0.9 1.6-0.9z" style="fill:#005a9c"/><path class="st1" d="m64.201 23.786 2.4419-0.37058c0.25359 1.2392 0.64378 2.5151 1.2938 3.6409l-2.1651 1.25c0.3 0.51962 0.6366 0.90263 0.9366 1.4222 0.1 0.1732 0.2 0.34641 0.4366 0.55622 0.4866 0.64282 1.1464 1.1856 1.6696 1.6919l1.3821-1.6062 0.20981-0.2366c0.60981 0.45622 1.2196 0.91244 1.916 1.3187 0.45981 0.19641 0.96962 0.47942 1.4294 0.67583l-0.84545 2.3356c0.73301 0.26962 1.5526 0.48923 2.3222 0.62224 0.76962 0.13301 1.6258 0.21602 2.3454 0.26244l-0.06077-2.5053c0.58301 0.0098 1.116-0.06699 1.649-0.14378 0.75622-0.09019 1.4624-0.26699 2.1187-0.53038l0.90359 2.3651c0.76602-0.6732 1.5088-0.9866 2.2017-1.3866 0.17321-0.1 0.34641-0.2 0.51962-0.3 0.51961-0.3 0.98923-0.6866 1.3722-1.0232l-1.5964-1.9651c1.0258-0.8232 1.8151-1.8562 2.4677-2.9258l2.1392 1.3053c0.81244-1.3928 1.3517-2.8588 1.6177-4.3981l-2.4454-0.43564c0.19282-1.266 0.24903-2.5687-5e-3 -3.8079l2.4419-0.37058c-0.17679-0.70622-0.35359-1.4124-0.53038-2.1187-0.05-0.0866-0.1-0.1732-0.0134-0.2232-0.05-0.0866-0.05-0.0866-0.1-0.1732-0.2634-0.65622-0.52679-1.3124-0.92679-2.0053l-2.1651 1.25c-0.65-1.1258-1.4732-2.1517-2.5062-2.9409l1.5419-1.9294c-1.183-1.049-2.5758-1.8615-4.1285-2.3507l-0.84545 2.3356c-1.1924-0.46603-2.4584-0.65885-3.761-0.71506l-0.06077-2.5053c-0.80622 0.0036-1.5624 0.09378-2.3187 0.18398-0.84282 0.14019-1.549 0.31699-2.2919 0.63038l0.90359 2.3651c-1.2258 0.4768-2.3517 1.1268-3.3775 1.95l-1.5964-1.9651c-0.93923 0.7732-1.6919 1.6696-2.3079 2.6026-0.0866 0.05-0.1232 0.1866-0.1232 0.1866-0.20981 0.2366-0.36962 0.55981-0.49282 0.74641l2.1392 1.3053c-0.36962 0.55981-0.60263 1.1562-0.83564 1.7526-0.23301 0.59641-0.41603 1.2794-0.51244 1.9124l-2.4454-0.43564c-0.07321 0.2732-0.05981 0.49641-0.13301 0.76962-0.05622 1.3026-0.11244 2.6053 0.19115 3.9311z" style="fill:#fff"/><polygon class="st1" transform="translate(-17.525,-34.9)" points="139.5 59.2 144.8 62.3 139.5 65.3" style="fill:#fff"/><polygon class="st1" transform="translate(-17.525,-34.9)" points="148.3 54.6 145.8 54.6 145.8 57.1 148.3 57.1 148.3 58.9 145.8 58.9 145.8 61.4 148.3 61.4 148.3 63.2 145.8 63.2 145.8 65.7 148.2 65.7 148.2 67.5 145.8 67.5 145.8 70 153.3 70 153.3 50.3 163.1 50.3 163.1 42.9 136 42.9 136 50.3 145.8 50.3 145.8 52.8 148.3 52.8" style="fill:#fff"/></svg>
